<svg width="802" height="802" viewBox="0 0 802 802" fill="none" xmlns="http://www.w3.org/2000/svg">
<path d="M162.408 387.391H143.121C142.768 384.895 142.049 382.679 140.963 380.741C139.877 378.775 138.482 377.101 136.78 375.722C135.077 374.342 133.11 373.285 130.879 372.551C128.678 371.817 126.285 371.45 123.702 371.45C119.034 371.45 114.968 372.61 111.504 374.929C108.04 377.219 105.354 380.565 103.446 384.969C101.538 389.343 100.584 394.656 100.584 400.909C100.584 407.338 101.538 412.74 103.446 417.114C105.384 421.488 108.084 424.79 111.548 427.021C115.012 429.252 119.019 430.368 123.57 430.368C126.124 430.368 128.487 430.03 130.659 429.355C132.861 428.68 134.813 427.696 136.516 426.405C138.218 425.084 139.627 423.484 140.743 421.605C141.888 419.726 142.68 417.583 143.121 415.176L162.408 415.264C161.909 419.403 160.661 423.396 158.665 427.241C156.698 431.058 154.041 434.478 150.695 437.501C147.377 440.496 143.414 442.874 138.805 444.635C134.226 446.367 129.045 447.233 123.261 447.233C115.218 447.233 108.026 445.413 101.685 441.773C95.3731 438.133 90.3826 432.863 86.7131 425.964C83.0729 419.066 81.2528 410.714 81.2528 400.909C81.2528 391.075 83.1023 382.708 86.8011 375.81C90.5 368.911 95.5199 363.656 101.861 360.045C108.202 356.405 115.335 354.585 123.261 354.585C128.487 354.585 133.33 355.319 137.793 356.787C142.284 358.255 146.262 360.398 149.726 363.216C153.19 366.005 156.008 369.425 158.18 373.476C160.382 377.527 161.791 382.165 162.408 387.391ZM194.486 406.898V446H175.728V355.818H193.958V390.297H194.751C196.277 386.304 198.743 383.178 202.148 380.918C205.554 378.628 209.825 377.483 214.962 377.483C219.659 377.483 223.754 378.51 227.248 380.565C230.771 382.591 233.501 385.512 235.438 389.328C237.405 393.115 238.374 397.651 238.344 402.935V446H219.586V406.281C219.615 402.113 218.558 398.869 216.415 396.55C214.302 394.231 211.337 393.071 207.521 393.071C204.967 393.071 202.706 393.614 200.739 394.7C198.802 395.786 197.275 397.372 196.16 399.456C195.074 401.511 194.516 403.991 194.486 406.898ZM253.107 446V378.364H271.865V446H253.107ZM262.53 369.645C259.741 369.645 257.349 368.72 255.353 366.871C253.386 364.992 252.402 362.746 252.402 360.134C252.402 357.55 253.386 355.334 255.353 353.484C257.349 351.606 259.741 350.666 262.53 350.666C265.319 350.666 267.697 351.606 269.664 353.484C271.66 355.334 272.658 357.55 272.658 360.134C272.658 362.746 271.66 364.992 269.664 366.871C267.697 368.72 265.319 369.645 262.53 369.645ZM305.651 355.818V446H286.892V355.818H305.651ZM339.436 355.818V446H320.677V355.818H339.436ZM410.738 397.651L393.565 398.707C393.271 397.24 392.64 395.919 391.671 394.744C390.702 393.541 389.425 392.587 387.84 391.882C386.284 391.148 384.42 390.781 382.248 390.781C379.342 390.781 376.89 391.398 374.894 392.631C372.898 393.834 371.9 395.449 371.9 397.474C371.9 399.089 372.546 400.454 373.837 401.57C375.129 402.685 377.345 403.58 380.486 404.256L392.728 406.722C399.304 408.072 404.206 410.244 407.435 413.239C410.665 416.233 412.279 420.167 412.279 425.04C412.279 429.473 410.973 433.362 408.36 436.709C405.777 440.055 402.225 442.668 397.704 444.547C393.212 446.396 388.031 447.321 382.16 447.321C373.206 447.321 366.073 445.457 360.759 441.729C355.475 437.971 352.378 432.863 351.468 426.405L369.918 425.436C370.476 428.166 371.826 430.25 373.969 431.689C376.112 433.098 378.857 433.803 382.204 433.803C385.492 433.803 388.134 433.171 390.13 431.909C392.156 430.617 393.183 428.959 393.212 426.933C393.183 425.231 392.464 423.836 391.055 422.75C389.646 421.634 387.473 420.783 384.538 420.196L372.825 417.862C366.219 416.541 361.302 414.251 358.073 410.993C354.873 407.734 353.273 403.58 353.273 398.531C353.273 394.187 354.448 390.444 356.796 387.303C359.174 384.161 362.506 381.74 366.792 380.037C371.107 378.334 376.156 377.483 381.94 377.483C390.482 377.483 397.205 379.288 402.107 382.899C407.039 386.51 409.916 391.427 410.738 397.651ZM424.091 471.364V378.364H442.586V389.724H443.422C444.244 387.904 445.433 386.055 446.989 384.176C448.574 382.268 450.629 380.683 453.154 379.42C455.708 378.129 458.878 377.483 462.665 377.483C467.597 377.483 472.147 378.775 476.316 381.358C480.484 383.912 483.816 387.772 486.311 392.939C488.807 398.076 490.054 404.52 490.054 412.27C490.054 419.814 488.836 426.185 486.399 431.381C483.992 436.547 480.704 440.466 476.536 443.138C472.397 445.78 467.758 447.101 462.621 447.101C458.981 447.101 455.884 446.499 453.33 445.295C450.805 444.092 448.736 442.58 447.121 440.76C445.506 438.911 444.274 437.046 443.422 435.168H442.85V471.364H424.091ZM442.453 412.182C442.453 416.204 443.011 419.712 444.127 422.706C445.242 425.7 446.857 428.034 448.971 429.707C451.084 431.351 453.653 432.173 456.676 432.173C459.73 432.173 462.313 431.337 464.426 429.663C466.54 427.961 468.14 425.612 469.226 422.618C470.342 419.594 470.899 416.116 470.899 412.182C470.899 408.277 470.356 404.843 469.27 401.878C468.184 398.913 466.584 396.594 464.471 394.92C462.357 393.247 459.759 392.411 456.676 392.411C453.623 392.411 451.04 393.218 448.926 394.832C446.842 396.447 445.242 398.737 444.127 401.702C443.011 404.667 442.453 408.16 442.453 412.182ZM653.333 378.364V392.455H612.601V378.364H653.333ZM621.848 362.159H640.607V425.216C640.607 426.948 640.871 428.298 641.399 429.267C641.928 430.206 642.662 430.867 643.601 431.249C644.57 431.63 645.685 431.821 646.948 431.821C647.828 431.821 648.709 431.748 649.59 431.601C650.47 431.425 651.146 431.293 651.615 431.205L654.566 445.163C653.626 445.457 652.305 445.795 650.603 446.176C648.9 446.587 646.83 446.837 644.394 446.925C639.873 447.101 635.91 446.499 632.505 445.119C629.129 443.74 626.501 441.597 624.622 438.69C622.744 435.784 621.819 432.115 621.848 427.682V362.159ZM720.98 397.651L703.807 398.707C703.513 397.24 702.882 395.919 701.913 394.744C700.945 393.541 699.668 392.587 698.082 391.882C696.526 391.148 694.662 390.781 692.49 390.781C689.584 390.781 687.133 391.398 685.136 392.631C683.14 393.834 682.142 395.449 682.142 397.474C682.142 399.089 682.788 400.454 684.08 401.57C685.371 402.685 687.588 403.58 690.729 404.256L702.97 406.722C709.546 408.072 714.448 410.244 717.678 413.239C720.907 416.233 722.521 420.167 722.521 425.04C722.521 429.473 721.215 433.362 718.602 436.709C716.019 440.055 712.467 442.668 707.946 444.547C703.455 446.396 698.273 447.321 692.402 447.321C683.448 447.321 676.315 445.457 671.001 441.729C665.717 437.971 662.62 432.863 661.71 426.405L680.16 425.436C680.718 428.166 682.069 430.25 684.212 431.689C686.355 433.098 689.099 433.803 692.446 433.803C695.734 433.803 698.376 433.171 700.372 431.909C702.398 430.617 703.425 428.959 703.455 426.933C703.425 425.231 702.706 423.836 701.297 422.75C699.888 421.634 697.715 420.783 694.78 420.196L683.067 417.862C676.462 416.541 671.544 414.251 668.315 410.993C665.115 407.734 663.516 403.58 663.516 398.531C663.516 394.187 664.69 390.444 667.038 387.303C669.416 384.161 672.748 381.74 677.034 380.037C681.349 378.334 686.399 377.483 692.182 377.483C700.724 377.483 707.447 379.288 712.349 382.899C717.281 386.51 720.158 391.427 720.98 397.651Z" fill="black"/>
<path d="M516.645 370.355C536.171 350.829 567.829 350.829 587.355 370.355V370.355C606.882 389.882 606.882 421.54 587.355 441.066L558.428 469.993C554.878 473.543 549.122 473.543 545.572 469.993L516.645 441.066C497.118 421.54 497.118 389.882 516.645 370.355V370.355Z" fill="black"/>
<path d="M583.82 437.53L554.893 466.458C553.295 468.055 550.705 468.055 549.107 466.458L520.18 437.53C502.607 419.957 502.607 391.464 520.18 373.891C537.754 356.317 566.246 356.317 583.82 373.891C601.393 391.464 601.393 419.957 583.82 437.53Z" stroke="white" stroke-opacity="0.25" stroke-width="10"/>
<path d="M534.322 388.033C544.085 378.27 559.915 378.27 569.678 388.033V388.033C579.441 397.796 579.441 413.625 569.678 423.388L555.214 437.852C553.439 439.627 550.561 439.627 548.786 437.852L534.322 423.388C524.559 413.625 524.559 397.796 534.322 388.033V388.033Z" fill="white" fill-opacity="0.25"/>
</svg>
